<?xml version="1.0" encoding="utf-8"?>
<!-- Generator: Adobe Illustrator 24.2.1, SVG Export Plug-In . SVG Version: 6.00 Build 0)  -->
<svg version="1.1" id="Layer_1" xmlns="http://www.w3.org/2000/svg" xmlns:xlink="http://www.w3.org/1999/xlink" x="0px" y="0px"
	 viewBox="0 0 50 49" style="enable-background:new 0 0 50 49;" xml:space="preserve">
<style type="text/css">
	.st0{fill-rule:evenodd;clip-rule:evenodd;fill:#262626;}
</style>
<path className="st0" d="M25.1,0C11.2,0,0,11.2,0,25.2C0,36.2,7.2,45.6,17.2,49c1.3,0.2,1.7-0.5,1.7-1.2v-4.4c-7,1.5-8.5-3.4-8.5-3.4
	c-1.2-2.9-2.8-3.7-2.8-3.7c-2.3-1.5,0.2-1.5,0.2-1.5c2.5,0.2,3.8,2.5,3.8,2.5c2.2,3.9,5.8,2.7,7.3,2c0.2-1.7,0.8-2.7,1.7-3.4
	C15,35.4,9.2,33.2,9.2,23.7c0-2.7,1-5,2.5-6.7c-0.3-0.7-1.2-3.2,0.2-6.7c0,0,2.2-0.7,6.8,2.5c2-0.5,4.2-0.8,6.3-0.8s4.3,0.3,6.3,0.8
	c4.8-3.2,6.8-2.5,6.8-2.5c1.3,3.5,0.5,6,0.2,6.7c1.7,1.7,2.5,4,2.5,6.7c0,9.7-5.8,11.7-11.4,12.4c0.8,0.8,1.7,2.3,1.7,4.7v6.9
	c0,0.7,0.5,1.5,1.7,1.2c10-3.4,17-12.7,17-23.8C50.1,11.2,38.9,0,25.1,0z"/>
</svg>
